<?xml version="1.0" encoding="UTF-8"?>
<svg id="Layer_1" data-name="Layer 1" xmlns="http://www.w3.org/2000/svg" xmlns:xlink="http://www.w3.org/1999/xlink" viewBox="0 0 308.88 212.46">
  <defs>
    <style>
      .cls-1, .cls-2 {
        fill: none;
      }

      .cls-3 {
        fill: #e9c31e;
      }

      .cls-4 {
        fill: #fff;
      }

      .cls-2 {
        clip-path: url(#clippath);
      }
    </style>
    <clipPath id="clippath">
      <rect class="cls-1" x="-41.54" y="7.37" width="391.96" height="197.71"/>
    </clipPath>
  </defs>
  <g class="cls-2">
    <g>
      <path class="cls-4" d="m23.56,191.68c-3.11,0-5.77-1.07-7.96-3.22-2.19-2.15-3.28-4.78-3.28-7.89s1.09-5.75,3.28-7.89c2.19-2.15,4.84-3.22,7.96-3.22s5.8,1.07,7.98,3.22c2.17,2.15,3.26,4.78,3.26,7.89s-1.09,5.75-3.26,7.89c-2.17,2.15-4.83,3.22-7.98,3.22Zm0-6.73c1.23,0,2.25-.41,3.05-1.22.8-.81,1.2-1.87,1.2-3.16s-.4-2.34-1.2-3.16c-.8-.81-1.82-1.22-3.05-1.22s-2.21.41-3.01,1.22c-.8.81-1.2,1.87-1.2,3.16s.4,2.34,1.2,3.16c.8.81,1.8,1.22,3.01,1.22Z"/>
      <path class="cls-4" d="m45.66,184.61h7.87v6.48h-17.22v-4.8l7.45-9.76h-7.03v-6.48h16.37v4.8l-7.45,9.76Z"/>
      <path class="cls-4" d="m73.31,176.1c0,.36.37.66,1.1.89.73.24,1.59.51,2.56.82.97.31,1.99.64,3.04.98,1.05.34,1.94,1.01,2.65,2.02s1.07,2.27,1.07,3.8c0,2.41-.9,4.2-2.71,5.35-1.81,1.15-3.95,1.73-6.43,1.73-4.71,0-7.86-1.67-9.43-5.01l6.1-3.07c.53,1.54,1.63,2.32,3.28,2.32,1.26,0,1.89-.38,1.89-1.12,0-.39-.36-.71-1.07-.95-.72-.25-1.56-.53-2.53-.87-.97-.33-1.97-.68-3-1.03-1.04-.35-1.9-1-2.6-1.94-.7-.94-1.05-2.1-1.05-3.47,0-2.24.83-3.98,2.5-5.22,1.66-1.24,3.67-1.85,6.01-1.85,4.15,0,7.04,1.63,8.67,4.88l-5.89,2.65c-.62-1.21-1.49-1.81-2.61-1.81-1.04,0-1.56.31-1.56.92Z"/>
      <path class="cls-4" d="m110.73,169.46c2.44,0,4.37.78,5.79,2.34s2.13,3.7,2.13,6.42v12.88h-7.03v-12.08c0-1.96-.87-2.95-2.61-2.95-.95,0-1.68.32-2.17.95-.49.63-.74,1.49-.74,2.59v11.49h-6.99v-12.08c0-1.96-.88-2.95-2.65-2.95-.95,0-1.68.32-2.17.95-.49.63-.74,1.49-.74,2.59v11.49h-6.99v-21.05h6.99v1.98c1.29-1.71,3.18-2.57,5.68-2.57s4.21.9,5.39,2.69c1.46-1.8,3.49-2.69,6.1-2.69Z"/>
      <path class="cls-4" d="m137.29,170.05h6.99v21.05h-6.99v-1.94c-1.43,1.68-3.42,2.53-5.98,2.53-2.81,0-5.16-1.06-7.05-3.18-1.89-2.12-2.84-4.76-2.84-7.93s.95-5.82,2.84-7.93c1.89-2.12,4.24-3.18,7.05-3.18,2.55,0,4.55.84,5.98,2.53v-1.94Zm-7.62,13.85c.81.84,1.88,1.26,3.2,1.26s2.38-.42,3.2-1.26c.81-.84,1.22-1.95,1.22-3.33s-.41-2.48-1.22-3.33c-.81-.84-1.88-1.26-3.2-1.26s-2.39.42-3.2,1.26-1.22,1.95-1.22,3.33.41,2.48,1.22,3.33Z"/>
      <path class="cls-4" d="m155.3,173.96c.39-1.38,1.18-2.44,2.36-3.2s2.5-1.14,3.96-1.14v7.75c-1.6-.25-3.05.04-4.36.88-1.31.84-1.96,2.22-1.96,4.12v8.71h-6.99v-21.05h6.99v3.92Z"/>
      <path class="cls-4" d="m177.82,176.74h-4.38v6.1c0,.93.34,1.5,1.01,1.73.67.23,1.8.29,3.37.21v6.31c-4.18.5-7.12.12-8.82-1.16-1.7-1.28-2.55-3.58-2.55-6.92v-6.27h-3.16v-6.69h3.16v-3.79l6.99-2.1v5.89h4.38v6.69Z"/>
      <path class="cls-4" d="m203.75,169.46c2.27,0,4.13.78,5.58,2.34,1.44,1.56,2.17,3.8,2.17,6.71v12.58h-6.99v-11.7c0-1.09-.29-1.92-.86-2.48s-1.34-.84-2.29-.84c-1.09,0-1.94.33-2.55.99-.6.66-.91,1.61-.91,2.84v11.2h-6.99v-29.46h6.99v10.52c1.26-1.8,3.21-2.69,5.85-2.69Z"/>
    </g>
    <path class="cls-3" d="m225.43,191.68c-3.12,0-5.77-1.07-7.96-3.22-2.19-2.15-3.28-4.78-3.28-7.89s1.09-5.75,3.28-7.89c2.19-2.15,4.84-3.22,7.96-3.22s5.8,1.07,7.98,3.22,3.26,4.78,3.26,7.89-1.09,5.75-3.26,7.89-4.83,3.22-7.98,3.22Zm0-6.73c1.23,0,2.25-.41,3.05-1.22.8-.81,1.2-1.87,1.2-3.16s-.4-2.34-1.2-3.16c-.8-.81-1.82-1.22-3.05-1.22s-2.21.41-3.01,1.22c-.8.81-1.2,1.87-1.2,3.16s.4,2.34,1.2,3.16c.8.81,1.8,1.22,3.01,1.22Z"/>
    <g>
      <path class="cls-4" d="m263.9,169.46c2.44,0,4.37.78,5.79,2.34s2.13,3.7,2.13,6.42v12.88h-7.03v-12.08c0-1.96-.87-2.95-2.61-2.95-.95,0-1.68.32-2.17.95-.49.63-.74,1.49-.74,2.59v11.49h-6.99v-12.08c0-1.96-.88-2.95-2.65-2.95-.95,0-1.68.32-2.17.95-.49.63-.74,1.49-.74,2.59v11.49h-6.99v-21.05h6.99v1.98c1.29-1.71,3.18-2.57,5.68-2.57s4.21.9,5.39,2.69c1.46-1.8,3.49-2.69,6.1-2.69Z"/>
      <path class="cls-4" d="m281.83,183.14c.7,1.71,2.27,2.57,4.71,2.57,1.52,0,2.79-.49,3.83-1.47l5.05,3.54c-2.08,2.61-5.09,3.91-9.05,3.91-3.56,0-6.42-1.04-8.57-3.14-2.15-2.09-3.22-4.73-3.22-7.93s1.05-5.82,3.16-7.96,4.78-3.2,8.04-3.2,5.74,1.05,7.79,3.16c2.05,2.1,3.07,4.74,3.07,7.91,0,.93-.1,1.8-.29,2.61h-14.52Zm-.08-4.84h8.08c-.56-1.96-1.88-2.95-3.96-2.95s-3.54.98-4.12,2.95Z"/>
    </g>
    <path class="cls-3" d="m151.13,54.53c0,6.25-5.07,11.32-11.32,11.32s-11.32-5.07-11.32-11.32,5.07-11.32,11.32-11.32,11.32,5.07,11.32,11.32"/>
    <path class="cls-3" d="m145.87,26.63c0,3.35-2.71,6.06-6.06,6.06s-6.06-2.71-6.06-6.06,2.71-6.06,6.06-6.06,6.06,2.71,6.06,6.06"/>
    <path class="cls-3" d="m117.79,54.53c0,3.35-2.71,6.06-6.06,6.06s-6.06-2.71-6.06-6.06,2.71-6.06,6.06-6.06,6.06,2.71,6.06,6.06"/>
    <path class="cls-3" d="m144.09,11.66c0,2.37-1.92,4.29-4.29,4.29s-4.28-1.92-4.28-4.29,1.92-4.29,4.28-4.29,4.29,1.92,4.29,4.29"/>
    <path class="cls-3" d="m100.24,54.53c0,2.37-1.92,4.29-4.29,4.29s-4.28-1.92-4.28-4.29,1.92-4.29,4.28-4.29,4.29,1.92,4.29,4.29"/>
    <path class="cls-3" d="m116.9,23.05c2.37,2.37,2.37,6.2,0,8.57-2.37,2.37-6.2,2.37-8.57,0s-2.37-6.2,0-8.57c2.37-2.37,6.21-2.37,8.57,0"/>
    <path class="cls-3" d="m159.94,54.62c0,6.26,5.07,11.32,11.32,11.32s11.32-5.07,11.32-11.32-5.07-11.32-11.32-11.32-11.32,5.07-11.32,11.32"/>
    <path class="cls-3" d="m165.2,26.72c0,3.35,2.71,6.06,6.06,6.06s6.06-2.71,6.06-6.06-2.71-6.06-6.06-6.06-6.06,2.71-6.06,6.06"/>
    <path class="cls-3" d="m193.28,54.62c0,3.35,2.71,6.06,6.06,6.06s6.06-2.71,6.06-6.06-2.71-6.06-6.06-6.06-6.06,2.71-6.06,6.06"/>
    <path class="cls-3" d="m166.98,11.75c0,2.37,1.92,4.29,4.29,4.29s4.28-1.92,4.28-4.29-1.92-4.29-4.28-4.29-4.29,1.92-4.29,4.29"/>
    <path class="cls-3" d="m210.83,54.62c0,2.37,1.92,4.29,4.29,4.29s4.29-1.92,4.29-4.29-1.92-4.29-4.29-4.29-4.29,1.92-4.29,4.29"/>
    <path class="cls-3" d="m194.17,23.14c-2.37,2.37-2.37,6.2,0,8.57,2.37,2.37,6.2,2.37,8.57,0s2.37-6.2,0-8.57c-2.37-2.37-6.21-2.37-8.57,0"/>
    <path class="cls-3" d="m151.01,86.29c0-6.25-5.07-11.32-11.32-11.32s-11.32,5.07-11.32,11.32,5.07,11.32,11.32,11.32,11.32-5.07,11.32-11.32"/>
    <path class="cls-3" d="m145.75,114.19c0-3.35-2.71-6.06-6.06-6.06s-6.06,2.71-6.06,6.06,2.71,6.06,6.06,6.06,6.06-2.71,6.06-6.06"/>
    <path class="cls-3" d="m117.67,86.29c0-3.35-2.71-6.06-6.06-6.06s-6.06,2.71-6.06,6.06,2.71,6.06,6.06,6.06,6.06-2.71,6.06-6.06"/>
    <path class="cls-3" d="m143.98,129.16c0-2.37-1.92-4.29-4.29-4.29s-4.29,1.92-4.29,4.29,1.92,4.29,4.29,4.29,4.29-1.92,4.29-4.29"/>
    <path class="cls-3" d="m100.12,86.29c0-2.37-1.92-4.29-4.29-4.29s-4.29,1.92-4.29,4.29,1.92,4.29,4.29,4.29,4.29-1.92,4.29-4.29"/>
    <path class="cls-3" d="m116.78,117.77c2.37-2.37,2.37-6.2,0-8.57-2.37-2.37-6.2-2.37-8.57,0-2.37,2.37-2.37,6.2,0,8.57,2.37,2.37,6.2,2.37,8.57,0"/>
    <path class="cls-3" d="m159.94,86.32c0-6.25,5.07-11.32,11.32-11.32s11.32,5.07,11.32,11.32-5.07,11.32-11.32,11.32-11.32-5.07-11.32-11.32"/>
    <path class="cls-3" d="m165.2,114.22c0-3.35,2.71-6.06,6.06-6.06s6.06,2.71,6.06,6.06-2.71,6.06-6.06,6.06-6.06-2.71-6.06-6.06"/>
    <path class="cls-3" d="m193.28,86.32c0-3.35,2.71-6.06,6.06-6.06s6.06,2.71,6.06,6.06-2.71,6.06-6.06,6.06-6.06-2.71-6.06-6.06"/>
    <path class="cls-3" d="m166.98,129.19c0-2.37,1.92-4.29,4.29-4.29s4.28,1.92,4.28,4.29-1.92,4.29-4.28,4.29-4.29-1.92-4.29-4.29"/>
    <path class="cls-3" d="m210.83,86.32c0-2.37,1.92-4.29,4.29-4.29s4.29,1.92,4.29,4.29-1.92,4.29-4.29,4.29-4.29-1.92-4.29-4.29"/>
    <path class="cls-3" d="m194.17,117.8c-2.37-2.37-2.37-6.2,0-8.57,2.37-2.37,6.2-2.37,8.57,0s2.37,6.2,0,8.57c-2.37,2.37-6.21,2.37-8.57,0"/>
    <path class="cls-3" d="m216.09,180.42c0-4.95,4.01-8.96,8.96-8.96s8.96,4.01,8.96,8.96-4.01,8.96-8.96,8.96-8.96-4.01-8.96-8.96"/>
  </g>
</svg>