<?xml version="1.0" standalone="no"?>
<!DOCTYPE svg PUBLIC "-//W3C//DTD SVG 20010904//EN"
 "http://www.w3.org/TR/2001/REC-SVG-20010904/DTD/svg10.dtd">
<svg version="1.0" xmlns="http://www.w3.org/2000/svg"
 width="804.000000pt" height="804.000000pt" viewBox="0 0 804.000000 804.000000"
 preserveAspectRatio="xMidYMid meet">
<metadata>
Created by potrace 1.14, written by Peter Selinger 2001-2017
</metadata>
<g transform="translate(0.000000,804.000000) scale(0.100000,-0.100000)"
fill="#000000" stroke="none">
<path d="M3179 7126 c-60 -21 -96 -54 -123 -109 -65 -138 25 -290 177 -301 24
-1 54 2 68 7 13 6 30 11 38 13 20 4 80 64 99 99 10 19 16 54 15 97 0 58 -4 72
-31 108 -17 23 -47 53 -66 66 -43 29 -125 38 -177 20z"/>
<path d="M4734 7121 c-151 -48 -194 -254 -74 -354 106 -90 239 -70 323 48 16
22 22 46 24 97 2 78 -13 118 -61 162 -61 56 -133 72 -212 47z"/>
<path d="M3208 6484 c-2 -1 -19 -6 -37 -9 -68 -12 -158 -79 -181 -136 -7 -16
-16 -29 -21 -29 -5 0 -8 -3 -7 -7 1 -5 -2 -24 -5 -43 -15 -73 -14 -106 6 -175
24 -83 119 -167 212 -188 144 -32 281 35 342 170 85 184 -46 402 -249 417 -31
2 -59 2 -60 0z"/>
<path d="M4710 6470 c-55 -26 -88 -46 -109 -64 -27 -24 -85 -106 -75 -106 3 0
0 -7 -7 -16 -9 -11 -14 -44 -13 -98 0 -93 24 -154 85 -215 86 -88 231 -112
338 -58 106 54 164 144 168 262 1 38 -3 75 -9 82 -6 7 -8 13 -4 13 3 0 -5 22
-18 49 -33 65 -102 124 -170 145 -53 17 -156 20 -186 6z"/>
<path d="M1808 6437 c-84 -27 -162 -106 -193 -194 -20 -56 -13 -159 13 -215
69 -142 223 -206 372 -156 151 51 233 223 182 381 -22 69 -109 157 -178 181
-55 18 -142 20 -196 3z"/>
<path d="M6039 6427 c-74 -28 -150 -105 -174 -177 -20 -59 -23 -157 -6 -188 6
-11 8 -22 5 -24 -2 -3 2 -11 11 -18 8 -7 15 -18 15 -25 0 -23 84 -98 137 -121
43 -19 66 -23 130 -20 117 5 203 58 250 155 35 70 35 73 35 146 -1 101 -48
184 -141 248 -25 17 -47 30 -48 29 -2 -1 -4 -2 -5 -1 -64 19 -151 18 -209 -4z"/>
<path d="M3099 5346 c-127 -38 -158 -57 -256 -155 -161 -162 -202 -408 -105
-622 39 -86 132 -191 202 -230 19 -11 42 -24 50 -29 15 -10 65 -31 85 -35 6
-2 29 -8 53 -14 64 -18 188 -14 263 7 349 98 516 487 347 805 -59 110 -182
217 -301 261 -100 38 -234 42 -338 12z"/>
<path d="M4698 5352 c-177 -32 -333 -155 -411 -323 -50 -108 -57 -283 -18
-401 117 -347 526 -492 835 -294 135 86 241 255 251 400 2 28 4 53 5 56 3 6 3
5 -4 75 -13 127 -65 234 -161 330 -138 139 -307 192 -497 157z"/>
<path d="M1773 5095 c-182 -54 -272 -270 -178 -431 32 -55 80 -100 134 -127
65 -31 197 -31 259 1 183 96 223 339 79 480 -77 75 -195 106 -294 77z"/>
<path d="M6113 5092 c-140 -41 -224 -155 -219 -297 3 -84 28 -146 80 -198 128
-128 329 -120 446 18 14 16 24 33 22 37 -1 4 2 8 6 8 27 0 52 189 30 218 -6 6
-8 12 -4 12 4 0 -3 18 -14 40 -68 134 -213 201 -347 162z"/>
<path d="M1019 5011 c-156 -49 -205 -235 -92 -353 15 -16 33 -28 40 -28 7 0
13 -4 13 -9 0 -12 66 -25 114 -23 133 5 228 157 179 286 -17 45 -71 102 -112
118 -35 14 -110 18 -142 9z"/>
<path d="M6894 4999 c-112 -43 -165 -165 -119 -275 66 -158 277 -177 372 -32
24 35 28 52 28 108 0 76 -14 110 -63 157 -58 56 -140 71 -218 42z"/>
<path d="M3150 3793 c-95 -15 -226 -81 -300 -154 -85 -82 -156 -218 -162 -312
-2 -26 -6 -47 -9 -47 -3 0 -4 -15 -2 -32 2 -18 5 -51 7 -73 12 -137 90 -278
206 -373 115 -94 273 -137 430 -117 67 9 72 10 114 28 21 10 40 17 42 17 33 0
234 175 234 203 0 5 8 21 18 35 77 112 90 330 30 482 -5 14 -9 25 -7 25 2 0
-15 27 -38 60 -36 52 -90 113 -137 152 -27 23 -120 70 -173 87 -48 16 -198 27
-253 19z"/>
<path d="M4738 3795 c-2 -2 -16 -5 -33 -8 -222 -35 -400 -206 -453 -434 -8
-38 -8 -178 1 -231 21 -130 154 -317 260 -365 15 -6 27 -15 27 -19 0 -5 8 -8
18 -8 10 0 22 -4 28 -8 20 -18 137 -44 209 -46 200 -6 422 132 508 315 52 111
64 180 53 304 -2 33 -11 79 -20 103 -8 23 -13 42 -10 42 3 0 -3 12 -14 28 -11
15 -19 29 -19 32 1 3 -13 26 -30 51 -59 86 -145 159 -228 193 -22 10 -40 17
-40 16 0 -1 -13 3 -28 9 -15 6 -42 14 -60 17 -35 6 -164 13 -169 9z"/>
<path d="M1775 3528 c-36 -12 -75 -30 -93 -43 -34 -25 -81 -77 -87 -95 -4 -11
-10 -20 -15 -20 -12 0 -33 -124 -27 -167 3 -21 11 -52 18 -68 7 -17 13 -33 13
-37 3 -21 80 -97 122 -120 152 -82 324 -30 409 123 26 47 30 64 30 134 0 69
-4 88 -30 139 -32 63 -86 114 -150 141 -48 19 -148 27 -190 13z"/>
<path d="M6092 3518 c-73 -24 -138 -82 -174 -156 -41 -84 -28 -231 27 -300
119 -150 318 -166 450 -37 67 66 93 129 90 221 -1 53 -8 82 -29 122 -24 48
-95 126 -114 127 -4 1 -17 6 -30 14 -55 30 -143 34 -220 9z"/>
<path d="M968 3421 c-55 -32 -73 -54 -96 -115 -39 -101 14 -219 117 -262 18
-8 45 -15 60 -16 38 -2 112 12 129 26 44 34 81 83 92 120 15 54 19 106 8 112
-4 3 -8 13 -8 23 0 28 -75 107 -117 124 -59 23 -135 18 -185 -12z"/>
<path d="M6920 3443 c-100 -34 -148 -94 -163 -200 -3 -17 -2 -34 1 -38 3 -3 8
-18 10 -33 2 -15 7 -28 13 -30 5 -2 9 -8 9 -13 0 -16 35 -50 78 -76 57 -34
130 -36 194 -5 117 57 154 210 75 314 -29 38 -50 53 -107 78 -19 8 -90 10
-110 3z"/>
<path d="M1843 2189 c-196 -35 -303 -247 -216 -427 104 -214 413 -222 527 -13
29 54 36 80 38 140 7 183 -167 332 -349 300z"/>
<path d="M6128 2195 c-1 -2 -17 -5 -34 -8 -208 -32 -316 -287 -196 -461 97
-140 273 -171 427 -73 92 58 142 210 106 323 -36 113 -131 198 -233 210 -24 2
-48 6 -55 9 -6 2 -13 2 -15 0z"/>
<path d="M3170 2152 c-48 -14 -122 -58 -147 -85 -55 -61 -78 -123 -77 -212 0
-63 5 -89 23 -124 32 -62 76 -106 135 -137 43 -23 64 -27 131 -28 48 0 92 5
110 13 17 8 33 15 38 15 4 1 28 19 53 41 97 85 129 234 75 346 -26 53 -90 129
-109 129 -5 0 -15 7 -22 15 -7 9 -15 13 -18 11 -2 -3 -14 0 -26 6 -21 11 -139
19 -166 10z"/>
<path d="M4735 2150 c-134 -33 -226 -145 -231 -281 -4 -119 56 -221 161 -277
43 -23 62 -27 135 -27 94 0 138 16 199 70 160 144 121 402 -75 495 -50 23
-136 32 -189 20z"/>
<path d="M3140 1304 c-65 -37 -92 -74 -107 -144 -18 -88 26 -182 107 -229 37
-21 139 -25 180 -8 107 46 159 180 111 287 -48 105 -191 151 -291 94z"/>
<path d="M4715 1311 c-45 -20 -85 -61 -106 -106 -20 -43 -26 -140 -9 -150 6
-3 10 -14 10 -24 0 -9 15 -34 34 -54 64 -70 164 -89 248 -48 39 18 109 81 92
81 -4 0 -2 6 4 13 12 15 25 73 24 109 -1 36 -23 98 -36 98 -5 0 -7 3 -3 6 9 9
-54 60 -98 78 -45 19 -116 18 -160 -3z"/>
</g>
</svg>
